# xmcd
#
# Track frame offsets:
#	150
#	16740
#	35589
#	53012
#	71625
#	87040
#	106768
#	130216
#	150977
#	170074
#
# Disc length: 2489 seconds
#
# Revision: 0
# Processed by: cddbd v1.5.2PL0 Copyright (c) Steve Scherf et al.
# Submitted via: audiograbber 1.83.01
#
DISCID=7209b70a
DTITLE=Moreland - John
DYEAR=2015
DGENRE=Singer-Song writer
TTITLE0=Hang me in the Tulsa county stars
TTITLE1=Heart's to heavy
TTITLE2=Cleveland county blues
TTITLE3=White flag
TTITLE4=Sad baptist rain
TTITLE5=Cherokee
TTITLE6=Losing sleep tonight
TTITLE7=American flags in black and white
TTITLE8=You don't care
TTITLE9=High on Tulsa heat
EXTD=
EXTT0=
EXTT1=
EXTT2=
EXTT3=
EXTT4=
EXTT5=
EXTT6=
EXTT7=
EXTT8=
EXTT9=
PLAYORDER=
